<?xml version="1.0" encoding="UTF-8"?>
<!-- Generator: Adobe Illustrator 19.2.1, SVG Export Plug-In . SVG Version: 6.00 Build 0)  -->
<svg version="1.1" id="svg2" inkscape:version="0.48.4 r9939" sodipodi:docname="logo_gba_footer.svg" xmlns:cc="http://creativecommons.org/ns#" xmlns:dc="http://purl.org/dc/elements/1.1/" xmlns:inkscape="http://www.inkscape.org/namespaces/inkscape" xmlns:rdf="http://www.w3.org/1999/02/22-rdf-syntax-ns#" xmlns:sodipodi="http://sodipodi.sourceforge.net/DTD/sodipodi-0.dtd" xmlns:svg="http://www.w3.org/2000/svg" xmlns="http://www.w3.org/2000/svg" xmlns:xlink="http://www.w3.org/1999/xlink" x="0px" y="0px" width="221.6px" height="79.1px" viewBox="0 0 221.6 79.1" style="enable-background:new 0 0 221.6 79.1;" xml:space="preserve">
<style type="text/css">
	.st0{fill:#FFFFFF;}
	.st1{fill:#010202;}
</style>
<g>
	<path class="st1" d="M8.9,27.3v4.8c-0.9,0.2-1.8,0.2-2.5,0.2c-1.9,0-3.4-0.4-4.4-1.3c-1-0.8-1.4-2.1-1.4-3.9c0-1.7,0.5-3,1.5-3.9   C3,22.4,4.4,22,6.3,22c0.8,0,1.6,0.1,2.3,0.3v1.8c-0.7-0.2-1.4-0.2-2.1-0.2c-0.8,0-1.5,0.1-2.1,0.3c-0.5,0.2-0.9,0.6-1.2,1.1   c-0.3,0.5-0.4,1.2-0.4,2c0,1.1,0.3,2,0.8,2.5s1.4,0.8,2.5,0.8c0.1,0,0.3,0,0.6,0v-3.2H8.9z"/>
	<path class="st1" d="M12.6,31.8c-0.7-0.4-1.3-1-1.7-1.7s-0.6-1.7-0.6-2.9s0.2-2.1,0.6-2.9s0.9-1.4,1.7-1.7c0.7-0.4,1.6-0.6,2.5-0.6   c1,0,1.8,0.2,2.5,0.6s1.3,1,1.7,1.7c0.4,0.8,0.6,1.7,0.6,2.9s-0.2,2.1-0.6,2.9c-0.4,0.8-0.9,1.4-1.7,1.7c-0.7,0.4-1.6,0.6-2.5,0.6   C14.1,32.4,13.3,32.2,12.6,31.8z M17,29.8c0.4-0.5,0.6-1.4,0.6-2.5c0-1.2-0.2-2.1-0.6-2.6s-1-0.8-1.8-0.8c-0.8,0-1.4,0.3-1.9,0.8   c-0.4,0.5-0.6,1.4-0.6,2.5c0,1.2,0.2,2.1,0.6,2.6s1,0.8,1.9,0.8C15.9,30.6,16.5,30.3,17,29.8z"/>
	<path class="st1" d="M28.7,27.8c0.3,0.4,0.5,0.9,0.5,1.6c0,0.6-0.2,1.2-0.5,1.6c-0.3,0.4-0.9,0.8-1.6,1c-0.7,0.2-1.7,0.3-2.9,0.3   c-0.4,0-0.9,0-1.4-0.1c-0.5,0-1-0.1-1.4-0.1v-9.8c0.5-0.1,1-0.2,1.6-0.3s1.1-0.1,1.7-0.1c1.5,0,2.6,0.2,3.3,0.7   c0.7,0.5,1,1.2,1,2.1c0,0.5-0.1,1-0.4,1.4c-0.3,0.4-0.7,0.7-1.2,0.8C27.9,27.1,28.4,27.4,28.7,27.8z M23.6,23.7v2.5H25   c0.7,0,1.1-0.1,1.4-0.3c0.3-0.2,0.4-0.5,0.4-1c0-0.3-0.1-0.6-0.2-0.8c-0.1-0.2-0.3-0.3-0.6-0.4c-0.3-0.1-0.7-0.1-1.1-0.1   C24.4,23.6,24,23.6,23.6,23.7z M26.2,30.6c0.3-0.1,0.6-0.3,0.7-0.5c0.1-0.2,0.2-0.5,0.2-0.8c0-0.5-0.2-0.9-0.5-1.1   c-0.3-0.2-0.8-0.3-1.5-0.3h-1.7v2.8c0.3,0,0.8,0.1,1.3,0.1C25.4,30.7,25.9,30.7,26.2,30.6z"/>
	<path class="st1" d="M30.5,32.2V22.1h2.2v10.1H30.5z"/>
	<path class="st1" d="M36.8,30.4h5v1.8h-7.2V22.1h7.1v1.8h-4.9v2.3H41v1.8h-4.2V30.4z"/>
	<path class="st1" d="M49.1,32.2l-2.6-3.7h-0.1c-0.3,0-0.7,0-1.1,0v3.8h-2.2v-9.9c0.5-0.1,1-0.2,1.5-0.3c0.5-0.1,1.1-0.1,1.6-0.1   c1.5,0,2.6,0.3,3.3,0.8c0.7,0.5,1.1,1.3,1.1,2.5c0,0.7-0.2,1.3-0.5,1.8c-0.3,0.5-0.9,0.9-1.5,1.1l2.9,4.1H49.1z M45.3,26.8   c0.4,0,0.8,0.1,1.1,0.1c0.7,0,1.3-0.1,1.6-0.4c0.4-0.3,0.5-0.7,0.5-1.2c0-0.6-0.2-1-0.5-1.2s-0.9-0.4-1.6-0.4c-0.4,0-0.8,0-1.2,0.1   V26.8z"/>
	<path class="st1" d="M59.2,22.1h2.1v10.1h-2.2l-4.4-6.8v6.8h-2.1V22.1h2.2l4.4,6.8V22.1z"/>
	<path class="st1" d="M65,31.8c-0.7-0.4-1.3-1-1.7-1.7s-0.6-1.7-0.6-2.9s0.2-2.1,0.6-2.9s0.9-1.4,1.7-1.7c0.7-0.4,1.6-0.6,2.5-0.6   c1,0,1.8,0.2,2.5,0.6s1.3,1,1.7,1.7c0.4,0.8,0.6,1.7,0.6,2.9s-0.2,2.1-0.6,2.9c-0.4,0.8-0.9,1.4-1.7,1.7c-0.7,0.4-1.6,0.6-2.5,0.6   C66.6,32.4,65.8,32.2,65,31.8z M69.4,29.8c0.4-0.5,0.6-1.4,0.6-2.5c0-1.2-0.2-2.1-0.6-2.6s-1-0.8-1.8-0.8c-0.8,0-1.4,0.3-1.9,0.8   c-0.4,0.5-0.6,1.4-0.6,2.5c0,1.2,0.2,2.1,0.6,2.6s1,0.8,1.9,0.8C68.4,30.6,69,30.3,69.4,29.8z"/>
	<path class="st1" d="M77.3,32.2v-9.8c0.5-0.1,1-0.2,1.6-0.2C79.4,22,80,22,80.5,22c1.9,0,3.3,0.4,4.2,1.3c0.9,0.8,1.4,2.1,1.4,3.9   c0,1.2-0.2,2.2-0.7,3c-0.4,0.8-1.1,1.3-2,1.7c-0.9,0.4-2,0.5-3.4,0.5C79.1,32.3,78.2,32.3,77.3,32.2z M82.4,30.2   c0.5-0.2,0.8-0.6,1-1.1c0.2-0.5,0.3-1.1,0.3-2c0-0.8-0.1-1.4-0.3-1.9c-0.2-0.5-0.6-0.9-1-1.1c-0.5-0.2-1-0.3-1.8-0.3   c-0.4,0-0.7,0-1.1,0.1v6.6c0.3,0,0.7,0,1.1,0C81.4,30.5,81.9,30.4,82.4,30.2z"/>
	<path class="st1" d="M89.8,30.4h5v1.8h-7.2V22.1h7.1v1.8h-4.9v2.3H94v1.8h-4.2V30.4z"/>
	<path class="st1" d="M99.6,32.2V22.1h2.2v8.3h4.7v1.9H99.6z"/>
	<path class="st1" d="M114.2,32.2l-0.8-2.7h-3.8l-0.8,2.7h-2.2l3.3-10.1h3.3l3.3,10.1H114.2z M110.2,27.8h2.7l-1.3-4.3L110.2,27.8z"/>
	<path class="st1" d="M120.9,22.3c1-0.2,2.1-0.3,3.1-0.3c1.5,0,2.7,0.3,3.4,0.9c0.8,0.6,1.1,1.5,1.1,2.8c0,1.2-0.4,2.1-1.1,2.7   c-0.7,0.6-1.8,0.9-3.3,0.9c-0.2,0-0.5,0-1,0v3h-2.2V22.3z M125.8,27.2c0.4-0.3,0.5-0.8,0.5-1.5c0-0.7-0.2-1.2-0.5-1.5   c-0.4-0.3-0.9-0.5-1.6-0.5c-0.4,0-0.7,0-1,0.1v3.8c0.3,0,0.7,0.1,1,0.1C124.9,27.6,125.4,27.5,125.8,27.2z"/>
	<path class="st1" d="M135.9,32.2l-2.6-3.7h-0.1c-0.3,0-0.7,0-1.1,0v3.8h-2.2v-9.9c0.5-0.1,1-0.2,1.5-0.3c0.5-0.1,1.1-0.1,1.6-0.1   c1.5,0,2.6,0.3,3.3,0.8c0.7,0.5,1.1,1.3,1.1,2.5c0,0.7-0.2,1.3-0.5,1.8c-0.3,0.5-0.9,0.9-1.5,1.1l2.9,4.1H135.9z M132.1,26.8   c0.4,0,0.8,0.1,1.1,0.1c0.7,0,1.3-0.1,1.6-0.4c0.4-0.3,0.5-0.7,0.5-1.2c0-0.6-0.2-1-0.5-1.2c-0.3-0.3-0.9-0.4-1.6-0.4   c-0.4,0-0.8,0-1.2,0.1V26.8z"/>
	<path class="st1" d="M140.8,31.8c-0.7-0.4-1.3-1-1.7-1.7c-0.4-0.8-0.6-1.7-0.6-2.9s0.2-2.1,0.6-2.9c0.4-0.8,0.9-1.4,1.7-1.7   c0.7-0.4,1.6-0.6,2.5-0.6c1,0,1.8,0.2,2.5,0.6c0.7,0.4,1.3,1,1.7,1.7s0.6,1.7,0.6,2.9s-0.2,2.1-0.6,2.9c-0.4,0.8-0.9,1.4-1.7,1.7   c-0.7,0.4-1.6,0.6-2.5,0.6C142.3,32.4,141.5,32.2,140.8,31.8z M145.2,29.8c0.4-0.5,0.6-1.4,0.6-2.5c0-1.2-0.2-2.1-0.6-2.6   c-0.4-0.5-1-0.8-1.8-0.8c-0.8,0-1.4,0.3-1.9,0.8c-0.4,0.5-0.6,1.4-0.6,2.5c0,1.2,0.2,2.1,0.6,2.6c0.4,0.5,1,0.8,1.9,0.8   C144.1,30.6,144.7,30.3,145.2,29.8z"/>
	<path class="st1" d="M156,22.1h2.2L155,32.2h-3.3l-3.3-10.1h2.3l2.6,8.4L156,22.1z"/>
	<path class="st1" d="M159.1,32.2V22.1h2.2v10.1H159.1z"/>
	<path class="st1" d="M169.8,22.1h2.1v10.1h-2.2l-4.4-6.8v6.8h-2.1V22.1h2.2l4.4,6.8V22.1z"/>
	<path class="st1" d="M174.8,31.1c-0.9-0.8-1.3-2.1-1.3-3.9c0-1.7,0.5-3,1.4-3.9c0.9-0.9,2.3-1.3,4-1.3c0.8,0,1.5,0.1,2.2,0.2V24   c-0.7-0.2-1.3-0.2-2-0.2c-0.7,0-1.3,0.1-1.8,0.3c-0.5,0.2-0.8,0.6-1.1,1.1c-0.2,0.5-0.4,1.1-0.4,1.9c0,0.8,0.1,1.5,0.3,2   c0.2,0.5,0.6,0.9,1,1.1c0.5,0.2,1.1,0.3,1.8,0.3c0.6,0,1.3-0.1,2.1-0.3V32c-0.3,0.1-0.7,0.2-1.1,0.2s-0.8,0.1-1.2,0.1   C177,32.4,175.6,31.9,174.8,31.1z"/>
	<path class="st1" d="M182.2,32.2V22.1h2.2v10.1H182.2z"/>
	<path class="st1" d="M193.1,32.2l-0.8-2.7h-3.8l-0.8,2.7h-2.2l3.3-10.1h3.3l3.3,10.1H193.1z M189,27.8h2.7l-1.3-4.3L189,27.8z"/>
	<path class="st1" d="M199.7,32.2v-9.8c0.5-0.1,1-0.2,1.6-0.2c0.6-0.1,1.1-0.1,1.7-0.1c1.9,0,3.3,0.4,4.2,1.3   c0.9,0.8,1.4,2.1,1.4,3.9c0,1.2-0.2,2.2-0.7,3c-0.4,0.8-1.1,1.3-2,1.7c-0.9,0.4-2,0.5-3.4,0.5C201.5,32.3,200.6,32.3,199.7,32.2z    M204.8,30.2c0.5-0.2,0.8-0.6,1-1.1c0.2-0.5,0.3-1.1,0.3-2c0-0.8-0.1-1.4-0.3-1.9c-0.2-0.5-0.6-0.9-1-1.1c-0.5-0.2-1-0.3-1.8-0.3   c-0.4,0-0.7,0-1.1,0.1v6.6c0.3,0,0.7,0,1.1,0C203.8,30.5,204.4,30.4,204.8,30.2z"/>
	<path class="st1" d="M212.2,30.4h5v1.8H210V22.1h7.1v1.8h-4.9v2.3h4.2v1.8h-4.2V30.4z"/>
</g>
<g>
	<path class="st0" d="M17.3,50.1c0.7,0.9,1.1,2.1,1.1,3.5c0,1.4-0.4,2.6-1.1,3.6c-0.7,1-1.9,1.7-3.5,2.2c-1.6,0.5-3.8,0.8-6.4,0.8   c-0.9,0-2,0-3.2-0.1C3,59.9,2,59.8,1,59.7V38c1.1-0.2,2.2-0.4,3.5-0.6c1.3-0.1,2.5-0.2,3.7-0.2c3.3,0,5.7,0.5,7.3,1.5   c1.5,1,2.3,2.6,2.3,4.7c0,1.2-0.3,2.2-0.9,3.1s-1.5,1.5-2.6,1.8C15.5,48.6,16.6,49.2,17.3,50.1z M5.8,41v5.5H9   c1.5,0,2.5-0.2,3.2-0.7c0.6-0.5,0.9-1.2,0.9-2.2c0-0.7-0.1-1.2-0.4-1.7c-0.3-0.4-0.7-0.7-1.4-0.9s-1.5-0.3-2.5-0.3   C7.8,40.8,6.8,40.9,5.8,41z M11.7,56.2c0.8-0.2,1.3-0.6,1.6-1c0.3-0.5,0.5-1,0.5-1.8c0-1.1-0.3-1.9-1-2.4s-1.8-0.7-3.3-0.7H5.8v6.1   c0.8,0.1,1.7,0.1,2.8,0.1C9.9,56.5,11,56.4,11.7,56.2z"/>
	<path class="st0" d="M23.4,57.8c-1.5-1.6-2.3-4-2.3-7.2V37.5h5v13.6c0,1.8,0.4,3,1.1,3.8s1.9,1.2,3.4,1.2c1.5,0,2.7-0.4,3.4-1.2   c0.7-0.8,1.1-2.1,1.1-3.8V37.5H40v13.1c0,3.3-0.8,5.7-2.3,7.2s-3.9,2.4-7.1,2.4C27.3,60.2,24.9,59.4,23.4,57.8z"/>
	<path class="st0" d="M48.8,55.9h11v3.9H43.9V37.5h15.8v3.9H48.8v5h9.4v3.9h-9.4V55.9z"/>
	<path class="st0" d="M77.6,37.5h4.7v22.4h-5l-9.7-15v15h-4.7V37.5h5l9.7,15V37.5z"/>
	<path class="st0" d="M90.5,58.9c-1.6-0.8-2.8-2.1-3.7-3.8s-1.3-3.8-1.3-6.4s0.4-4.7,1.3-6.4s2.1-3,3.7-3.8c1.6-0.8,3.5-1.3,5.6-1.3   c2.2,0,4,0.4,5.6,1.3c1.6,0.8,2.8,2.1,3.7,3.8s1.3,3.8,1.3,6.4c0,2.5-0.4,4.7-1.3,6.4s-2.1,3-3.7,3.8c-1.6,0.8-3.5,1.3-5.6,1.3   C94,60.2,92.1,59.7,90.5,58.9z M100.2,54.4c0.9-1.2,1.4-3.1,1.4-5.6c0-2.7-0.5-4.6-1.4-5.8s-2.3-1.8-4.1-1.8   c-1.8,0-3.2,0.6-4.1,1.8c-0.9,1.2-1.4,3.1-1.4,5.6c0,2.7,0.5,4.6,1.4,5.8s2.3,1.8,4.1,1.8C97.9,56.2,99.3,55.6,100.2,54.4z"/>
	<path class="st0" d="M112.3,59.9c-1.1-0.2-2.1-0.4-3-0.7v-4c0.9,0.3,2,0.5,3.1,0.7c1.1,0.2,2.2,0.3,3.2,0.3c1.4,0,2.5-0.2,3.1-0.7   s1-1.1,1-1.9c0-0.5-0.1-0.9-0.3-1.2c-0.2-0.3-0.5-0.6-1-0.8s-1.1-0.5-2-0.7l-1.7-0.4c-2-0.5-3.5-1.3-4.5-2.3   c-1-1.1-1.5-2.4-1.5-4.1c0-2.2,0.8-3.9,2.4-5c1.6-1.2,3.9-1.8,7-1.8c1,0,1.9,0.1,2.8,0.2s1.7,0.3,2.5,0.5v4   c-0.7-0.2-1.5-0.4-2.4-0.5c-0.9-0.1-1.8-0.2-2.6-0.2c-1.7,0-2.9,0.2-3.6,0.7c-0.7,0.5-1.1,1.1-1.1,1.9c0,0.5,0.1,0.8,0.3,1.1   c0.2,0.3,0.5,0.6,0.9,0.8c0.4,0.2,1,0.4,1.7,0.6l1.7,0.4c2.2,0.5,3.8,1.3,4.8,2.4c1,1.1,1.5,2.4,1.5,4.2c0,1.4-0.4,2.7-1.1,3.7   c-0.7,1-1.8,1.8-3.1,2.4c-1.3,0.6-3,0.8-4.8,0.8C114.5,60.2,113.4,60.1,112.3,59.9z"/>
	<path class="st0" d="M150.1,59.9l-1.8-6H140l-1.8,6h-4.8l7.2-22.4h7.2l7.2,22.4H150.1z M141.2,50h5.9l-3-9.6L141.2,50z"/>
	<path class="st0" d="M157.2,59.9V37.5h4.9v22.4H157.2z"/>
	<path class="st0" d="M179.4,59.9l-5.7-8.2h-0.3c-0.7,0-1.5,0-2.3-0.1v8.3h-4.9V38c1.1-0.2,2.2-0.4,3.4-0.6c1.2-0.1,2.4-0.2,3.6-0.2   c3.2,0,5.7,0.6,7.3,1.8s2.4,3,2.4,5.4c0,1.6-0.4,2.9-1.2,4c-0.8,1.1-1.9,1.9-3.3,2.5l6.4,9H179.4z M171.1,47.8   c0.8,0.1,1.7,0.1,2.4,0.1c1.6,0,2.8-0.3,3.6-0.8c0.8-0.6,1.2-1.5,1.2-2.7c0-1.2-0.4-2.1-1.1-2.7c-0.7-0.6-1.9-0.9-3.5-0.9   c-0.9,0-1.8,0.1-2.7,0.2V47.8z"/>
	<path class="st0" d="M192,55.9h11v3.9h-15.9V37.5h15.8v3.9H192v5h9.4v3.9H192V55.9z"/>
	<path class="st0" d="M208.5,59.9c-1.1-0.2-2.1-0.4-3-0.7v-4c0.9,0.3,2,0.5,3.1,0.7c1.1,0.2,2.2,0.3,3.2,0.3c1.4,0,2.5-0.2,3.1-0.7   s1-1.1,1-1.9c0-0.5-0.1-0.9-0.3-1.2c-0.2-0.3-0.5-0.6-1-0.8s-1.1-0.5-2-0.7l-1.7-0.4c-2-0.5-3.5-1.3-4.5-2.3s-1.5-2.4-1.5-4.1   c0-2.2,0.8-3.9,2.4-5s3.9-1.8,7-1.8c1,0,1.9,0.1,2.8,0.2s1.7,0.3,2.5,0.5v4c-0.7-0.2-1.5-0.4-2.4-0.5c-0.9-0.1-1.8-0.2-2.6-0.2   c-1.7,0-2.9,0.2-3.6,0.7c-0.7,0.5-1.1,1.1-1.1,1.9c0,0.5,0.1,0.8,0.3,1.1c0.2,0.3,0.5,0.6,0.9,0.8c0.4,0.2,1,0.4,1.7,0.6l1.7,0.4   c2.2,0.5,3.8,1.3,4.8,2.4c1,1.1,1.5,2.4,1.5,4.2c0,1.4-0.4,2.7-1.1,3.7c-0.7,1-1.8,1.8-3.1,2.4c-1.3,0.6-3,0.8-4.8,0.8   C210.6,60.2,209.5,60.1,208.5,59.9z"/>
</g>
</svg>