<?xml version="1.0" encoding="utf-8"?>
<!-- Generator: Adobe Illustrator 19.2.1, SVG Export Plug-In . SVG Version: 6.00 Build 0)  -->
<svg version="1.1" id="Capa_1" xmlns="http://www.w3.org/2000/svg" xmlns:xlink="http://www.w3.org/1999/xlink" x="0px" y="0px"
	 width="200.8px" height="135.9px" viewBox="0 0 200.8 135.9" style="enable-background:new 0 0 200.8 135.9;" xml:space="preserve"
	>
<style type="text/css">
	.st0{fill:#828281;}
	.st1{fill:#00B0C7;}
</style>
<g>
	<path class="st0" d="M16.4,9v8.1c-1.5,0.3-3,0.4-4.3,0.4c-3.3,0-5.7-0.7-7.3-2.1c-1.6-1.4-2.4-3.6-2.4-6.6c0-2.9,0.8-5.1,2.5-6.6
		C6.5,0.7,8.9,0,12,0c1.3,0,2.6,0.1,3.8,0.4v3.1c-1.2-0.3-2.4-0.4-3.5-0.4c-1.4,0-2.6,0.2-3.5,0.6c-0.9,0.4-1.6,1-2,1.8
		C6.5,6.4,6.3,7.5,6.3,8.9c0,1.9,0.5,3.3,1.4,4.2c0.9,0.9,2.3,1.3,4.2,1.3c0.2,0,0.6,0,1.1,0V9H16.4z"/>
	<path class="st0" d="M22.6,16.6c-1.2-0.6-2.1-1.6-2.8-2.9c-0.7-1.3-1-2.9-1-4.9c0-1.9,0.3-3.6,1-4.9c0.7-1.3,1.6-2.3,2.8-2.9
		c1.2-0.6,2.6-1,4.3-1c1.7,0,3.1,0.3,4.3,1c1.2,0.6,2.1,1.6,2.8,2.9c0.7,1.3,1,2.9,1,4.9c0,1.9-0.3,3.6-1,4.9
		c-0.7,1.3-1.6,2.3-2.8,2.9c-1.2,0.6-2.6,1-4.3,1C25.2,17.5,23.8,17.2,22.6,16.6 M30,13.1c0.7-0.9,1.1-2.3,1.1-4.3
		c0-2-0.4-3.5-1.1-4.4C29.2,3.5,28.2,3,26.9,3c-1.4,0-2.4,0.5-3.1,1.4c-0.7,0.9-1.1,2.3-1.1,4.3c0,2,0.4,3.5,1.1,4.4
		c0.7,0.9,1.8,1.4,3.1,1.4C28.2,14.5,29.3,14,30,13.1"/>
	<path class="st0" d="M49.8,9.8c0.6,0.7,0.8,1.6,0.8,2.7c0,1.1-0.3,2-0.8,2.7c-0.6,0.7-1.5,1.3-2.7,1.7c-1.2,0.4-2.9,0.6-4.9,0.6
		c-0.7,0-1.5,0-2.4-0.1c-0.9-0.1-1.7-0.1-2.4-0.2V0.6c0.8-0.2,1.7-0.3,2.7-0.4C41,0.1,42,0,42.9,0c2.5,0,4.4,0.4,5.5,1.2
		c1.2,0.8,1.7,2,1.7,3.6c0,0.9-0.2,1.7-0.7,2.4c-0.5,0.7-1.1,1.1-2,1.4C48.5,8.7,49.2,9.2,49.8,9.8 M41.1,3v4.2h2.4
		c1.1,0,1.9-0.2,2.4-0.5c0.5-0.4,0.7-0.9,0.7-1.7c0-0.5-0.1-0.9-0.3-1.3c-0.2-0.3-0.6-0.6-1-0.7c-0.5-0.2-1.1-0.2-1.9-0.2
		C42.6,2.7,41.8,2.8,41.1,3 M45.6,14.5c0.6-0.2,1-0.4,1.2-0.8c0.2-0.3,0.4-0.8,0.4-1.4c0-0.8-0.3-1.4-0.8-1.8
		C45.9,10.2,45,10,43.9,10h-2.8v4.7c0.6,0.1,1.3,0.1,2.1,0.1C44.2,14.8,45,14.7,45.6,14.5"/>
	<rect x="52.8" y="0.2" class="st0" width="3.8" height="17.1"/>
	<polygon class="st0" points="63.3,14.3 71.8,14.3 71.8,17.3 59.6,17.3 59.6,0.2 71.7,0.2 71.7,3.2 63.3,3.2 63.3,7.1 70.5,7.1 
		70.5,10.1 63.3,10.1 	"/>
	<path class="st0" d="M84.2,17.3L79.8,11h-0.2c-0.5,0-1.1,0-1.8-0.1v6.3h-3.7V0.6c0.8-0.2,1.7-0.3,2.6-0.4C77.7,0.1,78.6,0,79.5,0
		c2.5,0,4.3,0.4,5.6,1.3c1.2,0.9,1.8,2.3,1.8,4.1c0,1.2-0.3,2.2-0.9,3.1c-0.6,0.8-1.4,1.5-2.5,1.9l4.8,6.9H84.2z M77.8,8.1
		c0.6,0.1,1.3,0.1,1.9,0.1c1.2,0,2.2-0.2,2.8-0.6c0.6-0.4,0.9-1.1,0.9-2.1c0-0.9-0.3-1.6-0.8-2.1C81.9,3,81,2.8,79.8,2.8
		c-0.7,0-1.4,0.1-2,0.2V8.1z"/>
	<polygon class="st0" points="101.2,0.2 104.8,0.2 104.8,17.3 101,17.3 93.6,5.9 93.6,17.3 90,17.3 90,0.2 93.8,0.2 101.2,11.7 	"/>
	<path class="st0" d="M111.1,16.6c-1.2-0.6-2.1-1.6-2.8-2.9c-0.7-1.3-1-2.9-1-4.9c0-1.9,0.3-3.6,1-4.9c0.7-1.3,1.6-2.3,2.8-2.9
		c1.2-0.6,2.6-1,4.3-1c1.7,0,3.1,0.3,4.3,1c1.2,0.6,2.1,1.6,2.8,2.9c0.7,1.3,1,2.9,1,4.9c0,1.9-0.3,3.6-1,4.9
		c-0.7,1.3-1.6,2.3-2.8,2.9s-2.6,1-4.3,1C113.7,17.5,112.3,17.2,111.1,16.6 M118.5,13.1c0.7-0.9,1.1-2.3,1.1-4.3
		c0-2-0.4-3.5-1.1-4.4c-0.7-0.9-1.8-1.4-3.1-1.4c-1.4,0-2.4,0.5-3.1,1.4c-0.7,0.9-1.1,2.3-1.1,4.3c0,2,0.4,3.5,1.1,4.4
		c0.7,0.9,1.8,1.4,3.1,1.4C116.7,14.5,117.8,14,118.5,13.1"/>
	<path class="st0" d="M131.7,17.2V0.6c0.8-0.2,1.7-0.3,2.6-0.4c1-0.1,1.9-0.1,2.8-0.1c3.1,0,5.5,0.7,7.1,2.1
		c1.6,1.4,2.4,3.6,2.4,6.6c0,2-0.4,3.7-1.1,5c-0.7,1.3-1.9,2.2-3.4,2.8c-1.5,0.6-3.4,0.9-5.7,0.9C134.8,17.5,133.2,17.4,131.7,17.2
		 M140.4,13.9c0.8-0.4,1.4-1,1.7-1.8c0.4-0.8,0.6-1.9,0.6-3.3c0-1.3-0.2-2.4-0.6-3.3c-0.4-0.8-1-1.4-1.7-1.8c-0.8-0.4-1.8-0.6-3-0.6
		c-0.6,0-1.2,0.1-1.9,0.2v11.1c0.5,0.1,1.1,0.1,1.9,0.1C138.6,14.4,139.6,14.2,140.4,13.9"/>
	<polygon class="st0" points="152.8,14.3 161.2,14.3 161.2,17.3 149,17.3 149,0.2 161.1,0.2 161.1,3.2 152.8,3.2 152.8,7.1 
		159.9,7.1 159.9,10.1 152.8,10.1 	"/>
	<polygon class="st0" points="169.3,17.3 169.3,0.2 173.1,0.2 173.1,14.2 181,14.2 181,17.3 	"/>
	<path class="st0" d="M194.1,17.3l-1.4-4.6h-6.3l-1.4,4.6h-3.7l5.5-17.1h5.5l5.5,17.1H194.1z M187.2,9.8h4.5l-2.3-7.3L187.2,9.8z"/>
	<path class="st0" d="M2.9,27.1c1.7-0.3,3.5-0.5,5.2-0.5c2.6,0,4.5,0.5,5.8,1.5c1.3,1,1.9,2.6,1.9,4.7c0,2-0.6,3.6-1.9,4.6
		c-1.2,1-3.1,1.6-5.5,1.6c-0.3,0-0.9,0-1.7,0v5H2.9V27.1z M11.2,35.3c0.6-0.5,0.9-1.4,0.9-2.5c0-1.2-0.3-2-0.9-2.6
		c-0.6-0.5-1.5-0.8-2.8-0.8c-0.6,0-1.2,0-1.8,0.1V36c0.6,0.1,1.1,0.1,1.7,0.1C9.6,36.1,10.6,35.8,11.2,35.3"/>
	<path class="st0" d="M28.2,43.9l-4.4-6.3h-0.2c-0.5,0-1.1,0-1.8-0.1v6.3h-3.7V27.2c0.8-0.2,1.7-0.3,2.6-0.4
		c0.9-0.1,1.8-0.2,2.7-0.2c2.5,0,4.3,0.4,5.6,1.3c1.2,0.9,1.8,2.3,1.8,4.1c0,1.2-0.3,2.2-0.9,3.1c-0.6,0.8-1.4,1.5-2.5,1.9l4.8,6.9
		H28.2z M21.8,34.7c0.6,0.1,1.3,0.1,1.9,0.1c1.2,0,2.2-0.2,2.8-0.6c0.6-0.4,0.9-1.1,0.9-2.1c0-0.9-0.3-1.6-0.8-2.1
		c-0.6-0.4-1.4-0.7-2.6-0.7c-0.7,0-1.4,0.1-2,0.2V34.7z"/>
	<path class="st0" d="M36.4,43.1c-1.2-0.6-2.1-1.6-2.8-2.9c-0.7-1.3-1-2.9-1-4.9c0-1.9,0.3-3.6,1-4.9c0.7-1.3,1.6-2.3,2.8-2.9
		c1.2-0.6,2.6-1,4.3-1s3.1,0.3,4.3,1c1.2,0.6,2.1,1.6,2.8,2.9c0.7,1.3,1,2.9,1,4.9c0,1.9-0.3,3.6-1,4.9c-0.7,1.3-1.6,2.3-2.8,2.9
		c-1.2,0.6-2.6,1-4.3,1C39.1,44.1,37.6,43.8,36.4,43.1 M43.8,39.7c0.7-0.9,1.1-2.3,1.1-4.3c0-2-0.4-3.5-1.1-4.4
		c-0.7-0.9-1.8-1.4-3.1-1.4c-1.4,0-2.4,0.4-3.1,1.4c-0.7,0.9-1.1,2.3-1.1,4.3c0,2,0.4,3.5,1.1,4.4c0.7,0.9,1.8,1.4,3.1,1.4
		C42.1,41,43.1,40.6,43.8,39.7"/>
	<polygon class="st0" points="62.1,26.8 65.8,26.8 60.3,43.9 54.7,43.9 49.3,26.8 53.2,26.8 57.6,41 	"/>
	<rect x="67.3" y="26.8" class="st0" width="3.8" height="17.1"/>
	<polygon class="st0" points="85.4,26.8 88.9,26.8 88.9,43.9 85.1,43.9 77.7,32.4 77.7,43.9 74.2,43.9 74.2,26.8 78,26.8 85.4,38.2 
			"/>
	<path class="st0" d="M93.7,42c-1.5-1.4-2.3-3.6-2.3-6.6c0-2.9,0.8-5.1,2.3-6.6c1.6-1.5,3.8-2.2,6.8-2.2c1.3,0,2.5,0.1,3.7,0.4v3.1
		c-1.1-0.3-2.2-0.4-3.4-0.4c-1.2,0-2.3,0.2-3.1,0.6c-0.8,0.4-1.4,1-1.8,1.8c-0.4,0.8-0.6,1.9-0.6,3.3c0,1.4,0.2,2.5,0.6,3.3
		c0.4,0.8,1,1.4,1.8,1.8c0.8,0.4,1.8,0.6,3,0.6c1.1,0,2.3-0.2,3.5-0.5v3.1c-0.6,0.2-1.2,0.3-1.8,0.4c-0.7,0.1-1.3,0.1-2,0.1
		C97.4,44.1,95.2,43.4,93.7,42"/>
	<rect x="106.3" y="26.8" class="st0" width="3.8" height="17.1"/>
	<path class="st0" d="M124.6,43.9l-1.4-4.6h-6.3l-1.4,4.6h-3.7l5.5-17.1h5.5l5.5,17.1H124.6z M117.7,36.3h4.5L120,29L117.7,36.3z"/>
	<path class="st0" d="M135.8,43.8V27.2c0.8-0.2,1.7-0.3,2.6-0.4c1-0.1,1.9-0.1,2.8-0.1c3.1,0,5.5,0.7,7.1,2.1
		c1.6,1.4,2.4,3.6,2.4,6.6c0,2-0.4,3.7-1.1,5c-0.7,1.3-1.9,2.2-3.4,2.8c-1.5,0.6-3.4,0.9-5.7,0.9C138.8,44,137.3,43.9,135.8,43.8
		 M144.4,40.4c0.8-0.4,1.4-1,1.7-1.8c0.4-0.8,0.6-1.9,0.6-3.3c0-1.3-0.2-2.4-0.6-3.3c-0.4-0.8-1-1.4-1.7-1.8c-0.8-0.4-1.8-0.6-3-0.6
		c-0.6,0-1.2,0.1-1.9,0.2v11.1c0.5,0.1,1.1,0.1,1.9,0.1C142.7,41,143.7,40.8,144.4,40.4"/>
	<polygon class="st0" points="156.8,40.9 165.3,40.9 165.3,43.9 153.1,43.9 153.1,26.8 165.1,26.8 165.1,29.8 156.8,29.8 
		156.8,33.6 164,33.6 164,36.6 156.8,36.6 	"/>
	<path class="st1" d="M28.9,73.4c1.2,1.4,1.8,3.3,1.8,5.6c0,2.3-0.6,4.2-1.8,5.8c-1.2,1.5-3.1,2.7-5.7,3.5c-2.6,0.8-6,1.2-10.3,1.2
		c-1.5,0-3.2-0.1-5.1-0.2c-1.9-0.1-3.5-0.3-5.1-0.5V54c1.7-0.4,3.6-0.7,5.6-0.9c2-0.2,4-0.3,5.9-0.3c5.3,0,9.2,0.8,11.6,2.5
		c2.5,1.6,3.7,4.2,3.7,7.5c0,1.9-0.5,3.6-1.5,5c-1,1.4-2.4,2.3-4.2,2.9C26.1,71,27.8,71.9,28.9,73.4 M10.6,58.9v8.9h5.1
		c2.4,0,4-0.4,5.1-1.1c1-0.8,1.5-1.9,1.5-3.5c0-1.1-0.2-2-0.7-2.7c-0.5-0.7-1.2-1.2-2.2-1.5c-1-0.3-2.3-0.5-4-0.5
		C13.8,58.5,12.2,58.6,10.6,58.9 M20,83.2c1.2-0.4,2.1-0.9,2.6-1.6c0.5-0.7,0.8-1.7,0.8-2.8c0-1.7-0.5-3-1.6-3.8
		c-1.1-0.8-2.8-1.2-5.3-1.2h-5.9v9.8c1.2,0.1,2.7,0.2,4.5,0.2C17.2,83.7,18.8,83.5,20,83.2"/>
	<path class="st1" d="M38.7,85.8c-2.5-2.5-3.7-6.4-3.7-11.6v-21H43v21.8c0,2.8,0.6,4.9,1.8,6.2c1.2,1.3,3,1.9,5.5,1.9
		c2.5,0,4.3-0.6,5.5-1.9c1.2-1.3,1.8-3.3,1.8-6.2V53.2h7.8v21c0,5.2-1.2,9.1-3.6,11.6c-2.4,2.5-6.2,3.8-11.4,3.8
		C45,89.5,41.2,88.3,38.7,85.8"/>
	<polygon class="st1" points="79.3,82.8 97,82.8 97,89.1 71.5,89.1 71.5,53.2 96.8,53.2 96.8,59.5 79.3,59.5 79.3,67.5 94.3,67.5 
		94.3,73.9 79.3,73.9 	"/>
	<polygon class="st1" points="125.5,53.2 133,53.2 133,89.1 125,89.1 109.4,65 109.4,89.1 102,89.1 102,53.2 109.9,53.2 125.5,77.2 
			"/>
	<path class="st1" d="M146.2,87.5c-2.5-1.4-4.5-3.4-5.9-6.2c-1.4-2.7-2.1-6.2-2.1-10.2c0-4.1,0.7-7.5,2.1-10.2s3.3-4.8,5.9-6.2
		c2.5-1.4,5.5-2,9-2c3.5,0,6.5,0.7,9,2c2.5,1.4,4.5,3.4,5.9,6.2c1.4,2.8,2.1,6.2,2.1,10.2c0,4.1-0.7,7.5-2.1,10.2
		c-1.4,2.7-3.3,4.8-5.9,6.2c-2.5,1.4-5.5,2-9,2C151.7,89.5,148.7,88.9,146.2,87.5 M161.7,80.3c1.5-1.9,2.3-4.9,2.3-9
		c0-4.3-0.8-7.4-2.3-9.3c-1.5-1.9-3.7-2.9-6.5-2.9c-2.9,0-5.1,0.9-6.6,2.8c-1.5,1.9-2.3,4.9-2.3,9c0,4.3,0.8,7.4,2.3,9.3
		c1.5,1.9,3.7,2.9,6.6,2.9C158.1,83.1,160.2,82.2,161.7,80.3"/>
	<path class="st1" d="M181.1,89.1c-1.7-0.3-3.3-0.6-4.8-1.1v-6.4c1.5,0.5,3.2,0.9,5,1.2c1.8,0.3,3.5,0.4,5.1,0.4c2.3,0,4-0.4,5-1.1
		c1-0.7,1.6-1.7,1.6-3.1c0-0.8-0.2-1.4-0.5-1.9c-0.3-0.5-0.8-1-1.6-1.3c-0.7-0.4-1.8-0.7-3.1-1.1l-2.7-0.7c-3.2-0.8-5.6-2-7.2-3.7
		c-1.6-1.7-2.4-3.9-2.4-6.6c0-3.5,1.3-6.2,3.8-8.1c2.5-1.9,6.3-2.9,11.2-2.9c1.6,0,3.1,0.1,4.5,0.3c1.5,0.2,2.8,0.4,4,0.8v6.4
		c-1.1-0.4-2.4-0.6-3.8-0.8c-1.4-0.2-2.8-0.3-4.2-0.3c-2.7,0-4.6,0.4-5.8,1.1c-1.2,0.7-1.7,1.7-1.7,3.1c0,0.7,0.1,1.3,0.4,1.8
		c0.3,0.5,0.7,0.9,1.4,1.3c0.7,0.4,1.6,0.7,2.8,1l2.7,0.7c3.5,0.9,6.1,2.2,7.7,3.8c1.6,1.7,2.5,3.9,2.5,6.6c0,2.3-0.6,4.3-1.7,5.9
		c-1.1,1.7-2.8,2.9-5,3.8c-2.2,0.9-4.7,1.3-7.8,1.3C184.6,89.5,182.9,89.4,181.1,89.1"/>
	<path class="st1" d="M27,135.5l-3-9.6H10.7l-3,9.6H0l11.6-35.9h11.6l11.6,35.9H27z M12.6,119.6h9.5l-4.7-15.3L12.6,119.6z"/>
	<rect x="38.3" y="99.6" class="st1" width="7.9" height="35.9"/>
	<path class="st1" d="M73.8,135.5l-9.2-13.2h-0.4c-1.1,0-2.4,0-3.8-0.1v13.3h-7.8v-35.1c1.7-0.4,3.5-0.7,5.5-0.9
		c1.9-0.2,3.9-0.3,5.8-0.3c5.2,0,9.1,0.9,11.7,2.8c2.6,1.9,3.9,4.8,3.9,8.7c0,2.6-0.6,4.7-1.9,6.5c-1.2,1.7-3,3.1-5.4,3.9l10.2,14.4
		H73.8z M60.5,116.2c1.4,0.1,2.7,0.2,3.9,0.2c2.6,0,4.6-0.5,5.8-1.4c1.2-0.9,1.9-2.4,1.9-4.4c0-2-0.6-3.4-1.8-4.4
		c-1.2-0.9-3-1.4-5.5-1.4c-1.4,0-2.8,0.1-4.2,0.4V116.2z"/>
	<polygon class="st1" points="93.9,129.2 111.6,129.2 111.6,135.5 86.1,135.5 86.1,99.6 111.4,99.6 111.4,105.9 93.9,105.9 
		93.9,114 108.9,114 108.9,120.3 93.9,120.3 	"/>
	<path class="st1" d="M120.3,135.5c-1.7-0.3-3.3-0.6-4.8-1.1V128c1.5,0.5,3.2,0.9,5,1.2c1.8,0.3,3.5,0.4,5.1,0.4c2.3,0,4-0.4,5-1.1
		c1-0.7,1.6-1.7,1.6-3.1c0-0.8-0.2-1.4-0.5-1.9c-0.3-0.5-0.8-1-1.6-1.3c-0.7-0.4-1.8-0.7-3.1-1.1l-2.7-0.7c-3.2-0.8-5.6-2-7.2-3.7
		c-1.6-1.7-2.4-3.9-2.4-6.6c0-3.5,1.3-6.2,3.8-8.1c2.5-1.9,6.3-2.9,11.2-2.9c1.6,0,3.1,0.1,4.5,0.3c1.5,0.2,2.8,0.4,4,0.8v6.4
		c-1.1-0.4-2.4-0.6-3.8-0.8c-1.4-0.2-2.8-0.3-4.2-0.3c-2.7,0-4.6,0.4-5.8,1.1c-1.2,0.7-1.7,1.7-1.7,3.1c0,0.7,0.1,1.3,0.4,1.8
		c0.3,0.5,0.7,0.9,1.4,1.3c0.7,0.4,1.6,0.7,2.8,1l2.7,0.7c3.5,0.9,6.1,2.2,7.7,3.8c1.6,1.7,2.5,3.9,2.5,6.6c0,2.3-0.6,4.3-1.7,5.9
		c-1.1,1.7-2.8,2.9-5,3.8c-2.2,0.9-4.7,1.3-7.8,1.3C123.8,135.9,122.1,135.8,120.3,135.5"/>
</g>
</svg>
